<?xml version="1.0" standalone="no"?>
<!DOCTYPE svg PUBLIC "-//W3C//DTD SVG 20010904//EN"
 "http://www.w3.org/TR/2001/REC-SVG-20010904/DTD/svg10.dtd">
<svg version="1.0" xmlns="http://www.w3.org/2000/svg"
 width="1000.000000pt" height="1080.000000pt" viewBox="0 0 1000.000000 1080.000000"
 preserveAspectRatio="xMidYMid meet">

<g transform="translate(0.000000,1080.000000) scale(0.100000,-0.100000)"
fill="#000000" stroke="none">
<path d="M3145 8660 c-170 -25 -313 -68 -300 -90 3 -5 0 -7 -8 -4 -17 6 -80
-44 -71 -57 3 -5 0 -8 -7 -7 -7 2 -24 -17 -37 -41 -22 -39 -25 -55 -23 -133 1
-54 9 -112 21 -151 26 -81 97 -210 112 -201 7 4 8 3 4 -4 -4 -6 5 -29 19 -51
14 -23 25 -45 25 -51 0 -7 7 -7 21 0 12 7 18 18 15 26 -3 8 -2 13 2 10 5 -3
22 24 40 59 17 35 28 66 24 68 -4 3 -21 8 -39 12 -39 8 -88 61 -98 105 -4 17
-1 53 5 81 9 38 19 53 41 65 26 13 32 13 58 0 15 -8 34 -29 41 -45 7 -17 17
-28 23 -24 5 3 17 -3 25 -13 13 -17 14 -6 9 98 l-4 118 36 10 c20 5 41 10 48
10 25 0 23 21 -4 31 l-28 11 25 9 c14 4 51 15 83 24 31 9 57 20 57 25 0 4 32
14 70 20 39 6 70 14 70 16 0 2 -15 10 -32 18 -35 14 -32 18 27 31 27 6 28 8
10 15 -31 12 -205 19 -260 10z"/>
<path d="M7725 8653 c-107 -17 -259 -66 -387 -125 -65 -29 -79 -48 -37 -48 33
0 21 -15 -28 -37 l-48 -20 40 -11 c22 -7 95 -15 162 -18 l122 -7 -47 -35 c-26
-20 -49 -37 -51 -39 -2 -2 -1 -6 3 -10 11 -11 98 -5 171 12 36 8 69 15 72 15
3 0 -11 -18 -31 -40 -41 -46 -39 -60 7 -60 18 0 37 -4 42 -8 6 -4 10 -42 10
-84 0 -84 7 -100 32 -75 15 15 17 15 28 0 10 -13 15 -6 35 46 27 72 78 124
118 119 67 -8 89 -127 42 -223 -25 -50 -83 -100 -102 -89 -24 15 69 -187 101
-219 17 -18 20 -14 75 120 137 332 155 494 70 658 -46 88 -95 140 -153 160
-46 17 -190 27 -246 18z"/>
<path d="M3466 8437 c-17 -13 -17 -14 -1 -30 17 -18 33 -21 59 -11 24 9 19 33
-10 44 -31 12 -27 13 -48 -3z"/>
<path d="M3203 8424 c-55 -27 -50 -44 13 -44 53 0 114 21 114 39 0 25 -81 28
-127 5z"/>
<path d="M5165 8412 c-90 -27 -188 -75 -234 -117 l-41 -37 0 -85 c0 -53 4 -82
10 -78 6 3 10 15 10 25 0 34 57 86 140 128 45 23 90 42 99 42 11 0 36 -25 60
-60 59 -84 192 -222 250 -259 33 -21 60 -31 88 -31 44 0 67 -18 78 -61 18 -71
-57 -188 -111 -175 -26 7 -26 6 -19 -36 19 -121 27 -165 33 -175 4 -6 52 -40
107 -75 136 -88 128 -84 121 -62 -3 11 -19 160 -36 333 -17 172 -37 348 -46
390 -30 155 -107 266 -222 323 -63 31 -200 35 -287 10z"/>
<path d="M3204 8226 c-8 -33 1 -56 21 -56 13 0 15 9 13 37 -4 43 -25 55 -34
19z"/>
<path d="M3514 8236 c-9 -25 0 -61 16 -61 10 0 16 12 18 38 2 28 0 37 -13 37
-8 0 -18 -6 -21 -14z"/>
<path d="M7386 8234 c-43 -42 -6 -64 108 -64 106 0 112 14 21 53 -73 31 -107
34 -129 11z"/>
<path d="M4930 8087 c-59 -20 -31 -44 53 -46 44 -1 62 24 32 45 -22 17 -39 17
-85 1z"/>
<path d="M5203 8069 c-45 -17 -22 -49 35 -49 14 0 52 -7 84 -16 32 -9 61 -14
65 -10 11 10 -38 55 -71 65 -53 16 -90 19 -113 10z"/>
<path d="M7457 8053 c-4 -3 -7 -18 -7 -33 0 -15 3 -30 7 -33 10 -10 33 13 33
33 0 20 -23 43 -33 33z"/>
<path d="M4870 7959 c-11 -8 -6 -9 20 -5 25 4 46 0 73 -14 30 -16 37 -17 37
-5 0 8 -9 19 -19 25 -25 13 -92 13 -111 -1z"/>
<path d="M3385 7950 c-11 -5 -63 -9 -115 -9 l-95 -1 47 -30 c25 -16 49 -38 53
-50 17 -54 133 2 150 73 8 29 -2 33 -40 17z"/>
<path d="M5223 7949 c-55 -16 -45 -27 20 -22 57 5 66 3 94 -21 45 -38 70 -34
39 6 -15 20 -77 48 -103 47 -10 0 -32 -5 -50 -10z"/>
<path d="M4912 7916 c2 -15 8 -26 13 -26 15 0 12 43 -3 48 -10 3 -13 -4 -10
-22z"/>
<path d="M5215 7910 c-8 -13 3 -50 15 -50 15 0 22 19 15 40 -7 22 -20 26 -30
10z"/>
<path d="M7457 7764 c-11 -11 17 -55 39 -60 42 -11 59 20 28 50 -15 16 -55 22
-67 10z"/>
<path d="M2779 7603 c124 -170 217 -222 421 -236 47 -4 105 17 95 33 -4 7 -13
6 -25 0 -26 -14 -96 -12 -183 4 -121 23 -166 55 -269 187 -75 97 -109 107 -39
12z"/>
<path d="M5040 7637 c0 -28 50 -77 78 -77 10 0 23 9 29 19 7 11 28 25 48 32
60 22 52 26 -102 45 -52 6 -53 6 -53 -19z"/>
<path d="M7973 7528 c-18 -11 -33 -24 -33 -30 0 -5 -4 -7 -8 -4 -12 7 -213
-109 -205 -119 5 -4 3 -5 -4 -1 -7 4 -31 -3 -53 -14 -54 -27 -92 -42 -86 -32
2 4 -2 18 -9 32 l-13 25 -10 -25 c-25 -67 -25 -69 5 -64 15 3 32 9 39 15 6 5
13 6 16 3 11 -10 180 75 172 87 -4 8 -3 9 4 5 12 -7 207 106 241 140 13 12
-28 0 -56 -18z"/>
<path d="M5010 7526 c0 -7 62 -211 65 -214 5 -6 155 98 155 107 0 4 -5 22 -11
40 -11 30 -13 31 -67 31 -35 0 -74 8 -99 20 -24 10 -43 18 -43 16z"/>
<path d="M8023 7375 c-16 -17 11 -29 35 -15 16 9 16 9 0 10 -9 0 -18 4 -20 9
-1 5 -8 3 -15 -4z"/>
<path d="M8197 7319 c-9 -6 -15 -15 -11 -20 3 -5 2 -9 -3 -8 -22 4 -39 -7
-120 -75 -139 -116 -291 -284 -333 -366 -30 -58 -26 -117 10 -172 36 -55 65
-72 49 -31 -9 24 -9 166 0 158 2 -2 24 24 48 58 25 34 57 74 70 89 16 16 22
31 17 40 -4 7 -3 10 1 5 11 -9 45 21 41 36 -2 7 -1 8 2 4 2 -5 19 6 38 24 18
18 30 37 27 43 -3 6 -2 8 2 3 5 -4 25 8 44 27 20 18 57 49 83 69 26 19 45 37
42 39 -2 3 16 4 40 4 l44 -1 -18 25 c-33 46 -53 60 -73 49z m47 -27 c3 -5 -1
-9 -9 -9 -8 0 -12 4 -9 9 3 4 7 8 9 8 2 0 6 -4 9 -8z"/>
<path d="M7820 7313 c0 -7 -8 -13 -17 -14 -14 0 -15 -2 -3 -6 8 -3 18 -10 21
-15 3 -5 9 -3 12 5 3 7 1 20 -4 28 -6 10 -9 10 -9 2z"/>
<path d="M7588 7198 c-3 -7 -2 -22 2 -32 6 -19 7 -19 12 1 7 25 -6 53 -14 31z"/>
<path d="M5036 6992 c-3 -5 -1 -33 4 -62 6 -29 10 -54 10 -56 0 -2 5 -4 11 -4
8 0 10 18 7 55 -5 55 -20 87 -32 67z"/>
<path d="M7695 6980 c4 -6 11 -8 16 -5 14 9 11 15 -7 15 -8 0 -12 -5 -9 -10z"/>
<path d="M2515 6924 c-61 -86 -227 -298 -239 -306 -6 -4 -7 -10 -3 -14 4 -5
42 29 84 74 52 56 83 82 98 82 33 0 80 58 94 116 7 27 19 57 28 66 16 17 10
38 -10 38 -7 0 -30 -25 -52 -56z"/>
<path d="M5856 6860 c3 -74 11 -101 24 -80 4 7 4 27 -1 44 -5 17 -9 48 -9 68
0 21 -4 38 -8 38 -5 0 -8 -31 -6 -70z"/>
<path d="M1939 6903 c-12 -16 -12 -17 2 -5 14 11 21 6 47 -35 86 -136 140
-285 143 -399 2 -44 5 -52 16 -43 17 15 17 51 -2 137 -18 87 -41 145 -100 251
-64 115 -79 128 -106 94z"/>
<path d="M3446 6892 c-26 -42 -70 -465 -65 -625 3 -87 35 -59 38 33 1 29 8 39
39 58 60 37 155 127 150 142 -3 9 -13 4 -34 -17 -37 -38 -139 -123 -147 -123
-5 0 1 82 7 86 0 1 40 20 89 43 48 23 87 46 87 51 0 14 -18 21 -25 10 -3 -5
-14 -10 -24 -10 -10 0 -44 -13 -76 -29 l-58 -29 6 87 c4 48 13 120 22 160 17
81 20 157 6 166 -5 3 -12 1 -15 -3z"/>
<path d="M1900 6858 c0 -4 22 -49 49 -100 60 -113 115 -246 132 -322 12 -57
23 -74 33 -58 8 13 -48 188 -85 268 -45 97 -128 233 -129 212z"/>
<path d="M7540 6760 c0 -11 4 -20 9 -20 5 0 7 9 4 20 -3 11 -7 20 -9 20 -2 0
-4 -9 -4 -20z"/>
<path d="M5310 6498 c-30 -5 -77 -7 -104 -4 -27 3 -45 2 -42 -2 4 -4 74 -10
154 -13 112 -5 163 -12 214 -28 75 -25 153 -26 153 -1 0 11 -16 17 -60 21 -33
4 -88 14 -121 23 -68 18 -111 19 -194 4z"/>
<path d="M7720 6423 c8 -3 18 -10 21 -15 3 -5 9 -3 12 6 5 12 0 16 -21 15 -16
0 -21 -3 -12 -6z"/>
<path d="M7459 6335 c-3 -11 1 -31 8 -45 11 -21 13 -22 12 -5 -1 11 -4 31 -8
45 -6 23 -8 23 -12 5z"/>
<path d="M7911 6193 c-1 -13 -6 -23 -11 -23 -6 0 -5 -6 2 -14 19 -21 29 -5 19
29 -8 25 -9 26 -10 8z"/>
<path d="M7647 6016 c-8 -20 6 -36 19 -22 8 9 7 15 -2 23 -9 9 -13 9 -17 -1z"/>
<path d="M8081 5824 c0 -10 4 -28 8 -38 7 -20 8 -19 13 0 3 11 -1 29 -8 39
-14 18 -14 18 -13 -1z"/>
<path d="M5086 5603 c-182 -512 -267 -1017 -239 -1415 11 -149 13 -159 78
-358 77 -234 163 -466 293 -790 87 -217 251 -611 257 -618 2 -2 25 9 52 24 26
15 49 28 50 28 0 1 -10 118 -23 261 -29 320 -59 558 -85 690 -25 125 -110 381
-182 548 l-54 127 44 147 c24 82 87 296 139 478 52 181 97 331 98 333 3 2 54
-17 65 -25 3 -2 6 -106 8 -231 5 -371 32 -720 67 -877 11 -46 12 -91 5 -190
-18 -279 -7 -648 31 -1035 22 -222 31 -282 37 -262 3 7 22 12 48 12 43 0 45 1
54 38 20 74 91 440 111 577 25 165 37 547 22 720 -9 106 -8 116 25 255 149
648 182 1183 93 1499 -11 40 -27 86 -35 101 l-15 28 -40 -19 c-22 -11 -88 -31
-147 -46 -95 -23 -127 -27 -273 -26 -184 0 -264 15 -384 73 -35 16 -66 30 -68
30 -2 0 -17 -35 -32 -77z"/>
<path d="M7507 5653 c-4 -5 -3 -23 2 -39 l8 -29 5 27 c5 28 -5 57 -15 41z"/>
<path d="M7830 5640 c0 -19 3 -21 12 -12 9 9 9 15 0 24 -9 9 -12 7 -12 -12z"/>
<path d="M2288 5632 c-9 -4 45 -8 120 -8 99 -1 165 -7 236 -23 55 -12 165 -26
245 -32 101 -7 179 -19 256 -39 143 -37 169 -40 173 -17 2 11 -3 17 -16 17
-11 0 -73 14 -138 31 -104 28 -144 33 -309 39 -104 5 -226 15 -270 24 -81 15
-265 20 -297 8z"/>
<path d="M2210 5508 c-6 -29 -15 -109 -20 -178 -5 -69 -32 -339 -59 -600 -28
-261 -59 -575 -71 -697 -15 -170 -38 -316 -95 -620 -88 -471 -158 -817 -187
-928 -11 -44 -20 -93 -18 -110 2 -16 3 -45 3 -63 0 -28 5 -34 29 -39 20 -4 27
-10 23 -22 -23 -75 -68 -290 -72 -348 l-6 -71 44 -13 c50 -14 299 -18 343 -6
l29 8 -6 167 c-4 92 -10 184 -13 204 l-7 38 50 0 50 0 -10 40 c-10 36 -9 42
12 61 13 12 20 27 17 36 -8 19 17 154 99 538 85 397 137 603 174 697 36 89
102 408 190 917 58 338 64 360 100 361 12 0 13 -19 7 -107 -3 -60 -9 -290 -12
-513 -5 -307 -3 -424 7 -485 20 -126 22 -466 4 -895 -9 -217 -17 -462 -18
-545 l-2 -150 30 -5 c19 -4 29 -11 28 -20 -1 -8 -14 -76 -28 -150 -14 -74 -25
-142 -25 -152 0 -17 21 -18 363 -18 l362 1 -40 35 c-22 19 -113 96 -203 171
-170 142 -177 153 -100 153 48 0 51 12 38 146 -13 138 -9 211 105 2359 19 363
35 678 35 700 l0 41 -142 13 c-156 13 -359 43 -453 66 -83 19 -265 35 -417 35
l-126 0 -12 -52z"/>
<path d="M8149 5486 c-17 -17 -499 -78 -627 -80 l-103 -1 6 -24 c4 -14 14 -31
23 -39 9 -7 11 -11 5 -7 -9 4 -13 -1 -13 -15 0 -12 3 -19 8 -17 4 3 5 -16 4
-42 -4 -46 6 -265 28 -681 9 -151 26 -290 76 -615 74 -479 118 -728 139 -798
21 -71 72 -448 130 -973 5 -39 11 -54 27 -61 18 -8 6 -18 -92 -83 -167 -110
-263 -182 -253 -190 14 -15 191 -16 205 -2 9 9 9 12 -3 12 -7 0 0 9 16 21 46
31 128 72 120 60 -10 -17 6 -13 43 9 17 11 32 26 32 35 0 10 8 13 28 11 15 -2
21 -1 15 1 -35 12 9 39 57 34 16 -1 33 6 45 18 11 13 31 21 50 21 17 0 35 4
41 9 5 5 61 11 124 14 63 2 122 7 131 11 14 6 17 41 22 249 7 265 -6 794 -23
952 -6 55 -17 126 -25 157 -12 46 -13 83 -5 185 5 71 16 331 25 578 8 248 18
464 21 480 3 17 11 57 19 90 14 61 36 293 34 374 l0 46 -33 -71 c-19 -39 -39
-74 -45 -78 -6 -4 -18 -32 -27 -62 -12 -41 -20 -54 -35 -54 -12 0 -19 -7 -19
-20 0 -11 -3 -20 -6 -20 -10 0 -177 126 -201 152 -21 22 -21 26 -8 65 8 22 26
58 40 79 17 25 23 43 18 53 -4 9 -8 62 -8 119 0 56 0 102 -1 102 0 0 -3 -2 -5
-4z m-396 -173 c-7 -2 -19 -2 -25 0 -7 3 -2 5 12 5 14 0 19 -2 13 -5z m-216
-19 c-3 -3 -12 -4 -19 -1 -8 3 -5 6 6 6 11 1 17 -2 13 -5z m593 -3194 c0 -6
-11 -8 -25 -4 -15 4 -25 2 -25 -5 0 -6 -6 -11 -14 -11 -8 0 -16 -7 -20 -15 -3
-8 -13 -15 -22 -15 -12 0 -4 10 22 30 38 29 84 40 84 20z m-245 -130 c-3 -5
-11 -10 -16 -10 -6 0 -7 5 -4 10 3 6 11 10 16 10 6 0 7 -4 4 -10z"/>
<path d="M8178 2083 c12 -2 32 -2 45 0 12 2 2 4 -23 4 -25 0 -35 -2 -22 -4z"/>
<path d="M8345 2071 c-5 -18 -9 -21 -16 -10 -7 11 -9 10 -9 -3 0 -10 5 -18 10
-18 6 0 10 -8 10 -17 0 -13 -2 -15 -8 -5 -6 8 -9 2 -9 -17 0 -17 4 -28 9 -25
4 3 8 12 8 20 0 8 5 12 10 9 6 -3 8 -18 5 -33 -6 -26 -5 -26 8 3 l14 30 6 -27
c4 -14 9 -34 13 -45 3 -10 -1 -7 -10 7 -9 15 -15 19 -15 10 -1 -25 17 -46 28
-35 7 7 5 27 -6 63 -13 40 -19 49 -30 40 -15 -12 -18 3 -3 18 7 7 7 19 2 35
l-9 24 -8 -24z"/>
<path d="M7983 2032 c-9 -6 -7 -11 7 -20 12 -7 20 -8 20 -2 0 5 -5 10 -11 10
-5 0 -7 5 -4 10 7 12 4 12 -12 2z"/>
<path d="M8045 2010 c3 -5 14 -10 23 -10 15 0 15 2 2 10 -20 13 -33 13 -25 0z"/>
<path d="M7890 1943 c-24 -12 -24 -13 -3 -13 12 0 25 5 28 11 11 16 2 17 -25
2z"/>
<path d="M8332 1940 c0 -14 2 -19 5 -12 2 6 2 18 0 25 -3 6 -5 1 -5 -13z"/>
<path d="M7809 1929 c-10 -6 -4 -9 19 -9 17 0 32 2 32 4 0 9 -39 13 -51 5z"/>
<path d="M8191 1916 c3 -3 50 -10 104 -16 55 -6 104 -15 110 -21 7 -7 2 -8
-17 -4 -18 5 -28 3 -28 -4 0 -6 16 -11 35 -11 31 0 34 2 27 21 -6 16 -18 22
-48 24 -21 2 -73 6 -114 10 -41 4 -72 4 -69 1z"/>
<path d="M8071 1899 c13 -8 97 -13 88 -5 -2 2 -26 6 -53 9 -30 3 -43 1 -35 -4z"/>
<path d="M7725 1880 c-3 -5 2 -10 12 -11 15 0 14 -2 -4 -11 -54 -26 -20 -31
165 -24 103 3 248 9 322 13 l135 7 -79 8 c-44 4 -86 3 -96 -2 -9 -5 -68 -9
-131 -10 -63 -1 -154 -2 -204 -3 -88 -2 -90 -1 -89 21 1 22 -20 31 -31 12z"/>
<path d="M7980 1880 c8 -5 24 -9 35 -9 l20 0 -20 9 c-11 5 -27 9 -35 9 -13 1
-13 0 0 -9z"/>
<path d="M8251 1886 c8 -8 78 -10 85 -3 4 4 -14 7 -41 7 -27 0 -46 -2 -44 -4z"/>
<path d="M8098 1873 c12 -2 32 -2 45 0 12 2 2 4 -23 4 -25 0 -35 -2 -22 -4z"/>
<path d="M0 400 l0 -400 5000 0 5000 0 0 400 0 400 -5000 0 -5000 0 0 -400z
m2192 123 c23 -20 23 -57 1 -74 -15 -11 -16 -11 -5 1 27 31 11 72 -33 83 -19
4 -19 5 -1 6 11 0 28 -6 38 -16z m-69 -8 c-3 -9 -8 -14 -10 -11 -3 3 -2 9 2
15 9 16 15 13 8 -4z m-1760 -114 c22 -61 43 -108 47 -104 4 4 24 56 45 116 21
59 42 107 47 107 11 0 9 -5 -42 -149 -23 -64 -44 -107 -53 -109 -15 -3 -17 0
-67 143 -15 44 -31 88 -36 99 -5 13 -3 17 6 14 8 -2 32 -55 53 -117z m517 89
c0 -23 4 -30 20 -30 11 0 20 -4 20 -10 0 -5 -10 -10 -21 -10 -20 0 -21 -4 -17
-71 3 -55 8 -74 23 -85 23 -17 14 -29 -13 -15 -11 6 -22 25 -26 42 -10 51 -7
209 4 209 6 0 10 -13 10 -30z m515 16 c25 -11 33 -19 29 -30 -7 -19 -5 -19
-40 -1 -36 18 -55 19 -78 2 -28 -21 -9 -45 49 -62 87 -25 108 -74 54 -127 -29
-29 -33 -30 -90 -25 -68 6 -72 8 -64 29 5 13 12 14 40 5 50 -15 100 1 100 33
0 16 -8 28 -25 36 -87 40 -105 51 -108 67 -14 70 53 106 133 73z m105 -16 c0
-25 4 -30 25 -30 16 0 25 -6 25 -15 0 -9 -9 -15 -25 -15 -24 0 -25 -3 -25 -60
0 -55 2 -62 25 -72 14 -6 25 -15 25 -20 0 -18 -31 -20 -55 -4 -24 16 -25 20
-25 131 0 96 3 115 15 115 10 0 15 -10 15 -30z m482 -32 l3 -62 36 32 c20 18
45 32 55 32 14 0 9 -9 -21 -40 l-39 -40 42 -60 c40 -57 41 -60 20 -60 -16 0
-32 14 -53 45 -16 25 -33 45 -37 45 -5 0 -8 -20 -8 -45 0 -38 -3 -45 -20 -45
-19 0 -20 7 -20 130 0 122 1 130 20 130 16 0 19 -8 22 -62z m193 30 c1 -20 -2
-24 -11 -17 -8 7 -14 6 -17 -3 -3 -7 -6 2 -6 20 -1 27 3 33 17 30 11 -2 17
-13 17 -30z m-44 -35 c13 -16 12 -17 -3 -4 -17 13 -22 21 -14 21 2 0 10 -8 17
-17z m-1502 -19 c12 -15 21 -40 21 -55 0 -29 0 -29 -65 -29 -72 0 -83 -12 -44
-51 17 -17 30 -20 65 -16 43 4 59 -5 28 -17 -45 -17 -106 3 -123 41 -45 98 56
206 118 127z m191 16 c17 -11 10 -13 -40 -10 -47 2 -75 -28 -75 -80 0 -55 26
-80 82 -80 27 0 42 -4 38 -10 -9 -15 -78 -12 -102 5 -50 35 -50 135 0 170 24
17 74 20 97 5z m265 -13 c20 -16 28 -35 32 -69 5 -42 3 -50 -25 -78 -41 -41
-83 -41 -124 0 -28 28 -30 36 -25 78 9 82 84 119 142 69z m85 7 c0 -14 2 -14
22 0 24 17 38 20 38 9 0 -5 -14 -16 -30 -25 -29 -17 -30 -19 -30 -93 0 -43 -4
-75 -10 -75 -6 0 -10 40 -10 100 0 60 4 100 10 100 6 0 10 -7 10 -16z m537 1
c30 -21 44 -75 32 -120 -25 -88 -143 -88 -168 0 -20 72 20 135 84 135 17 0 40
-7 52 -15z m198 -5 c0 -10 -8 -14 -27 -12 -58 6 -91 -42 -67 -100 11 -28 36
-40 74 -35 12 1 20 -4 20 -13 0 -19 -48 -25 -85 -10 -63 26 -68 148 -6 179 31
15 91 9 91 -9z m5384 -83 c8 -26 17 -47 21 -47 4 0 13 21 21 47 8 25 20 48 26
50 8 3 4 -21 -11 -64 -13 -38 -29 -68 -36 -68 -7 0 -23 30 -36 68 -15 43 -19
67 -11 64 6 -2 18 -25 26 -50z m638 38 c2 -6 -9 -11 -23 -10 -39 0 -42 -23 -5
-36 34 -12 49 -43 31 -64 -13 -16 -38 -19 -64 -9 -27 10 -18 22 17 20 38 -1
43 19 8 37 -36 18 -48 42 -31 62 14 17 61 17 67 0z m333 -20 c0 -35 16 -47 26
-20 4 8 13 15 22 15 13 0 13 -3 -2 -19 -16 -18 -16 -21 -1 -50 19 -38 8 -40
-22 -3 l-22 27 -1 -27 c0 -16 -4 -28 -10 -28 -6 0 -10 30 -10 70 0 40 4 70 10
70 6 0 10 -16 10 -35z m580 32 c0 -4 -34 -104 -45 -136 -3 -8 -8 -11 -11 -8
-8 7 38 147 48 147 4 0 8 -2 8 -3z m100 -16 c-5 -11 -15 -23 -21 -26 -6 -5 -2
-13 11 -22 42 -29 8 -82 -43 -69 -37 9 -34 27 3 20 22 -5 31 -2 36 11 6 16 -3
28 -31 39 -6 2 -5 9 3 17 18 19 15 29 -8 29 -11 0 -20 5 -20 10 0 6 18 10 40
10 37 0 40 -2 30 -19z m110 9 c0 -5 -11 -10 -25 -10 -32 0 -32 -16 -1 -24 27
-7 41 -35 31 -65 -7 -23 -37 -35 -65 -26 -31 10 -24 23 13 21 28 -1 32 2 32
24 0 21 -4 25 -30 24 -29 -1 -30 0 -27 32 4 31 7 34 38 34 19 0 34 -4 34 -10z
m120 5 c0 -6 -60 -127 -66 -134 -2 -2 -7 -2 -10 1 -3 3 6 29 20 57 14 28 26
53 26 56 0 3 -13 5 -30 5 -16 0 -30 5 -30 10 0 6 20 10 45 10 25 0 45 -2 45
-5z m90 -14 c-5 -11 -15 -23 -21 -26 -6 -5 -2 -13 11 -22 42 -29 8 -82 -43
-69 -37 9 -34 27 3 20 22 -5 31 -2 36 11 6 16 -3 28 -31 39 -6 2 -5 9 3 17 18
19 15 29 -8 29 -11 0 -20 5 -20 10 0 6 18 10 40 10 37 0 40 -2 30 -19z m120 9
c0 -5 -11 -10 -25 -10 -15 0 -29 -8 -36 -22 -10 -18 -9 -20 6 -14 23 8 65 -19
65 -42 0 -41 -48 -56 -82 -25 -24 21 -23 64 3 97 20 25 69 37 69 16z m100 -9
c-5 -11 -15 -23 -20 -26 -6 -4 -1 -14 12 -25 20 -15 21 -21 10 -44 -11 -26
-34 -32 -66 -20 -28 11 -17 24 14 18 22 -5 31 -2 36 11 6 16 -3 28 -31 39 -6
2 -5 9 3 17 18 19 15 29 -8 29 -11 0 -20 5 -20 10 0 6 18 10 40 10 37 0 40 -2
30 -19z m108 7 c21 -21 13 -45 -25 -77 l-38 -30 43 -1 c23 0 42 -4 42 -10 0
-5 -22 -10 -50 -10 -62 0 -65 15 -14 63 42 40 39 62 -8 53 -26 -5 -29 -4 -18
9 15 18 51 20 68 3z m104 -5 c39 -35 8 -122 -44 -123 -10 0 -18 5 -18 10 0 6
9 10 20 10 10 0 24 10 31 22 10 18 9 20 -6 15 -24 -10 -55 10 -55 36 0 44 38
61 72 30z m-2062 -28 c9 -10 9 -15 1 -15 -15 0 -14 -57 2 -63 6 -2 9 -7 6 -11
-15 -17 -37 8 -41 47 -7 58 5 74 32 42z m360 0 c9 -10 9 -15 1 -15 -15 0 -14
-57 2 -63 6 -2 9 -7 6 -11 -15 -17 -37 8 -41 47 -7 58 5 74 32 42z m-532 -7
c23 -23 13 -38 -24 -38 -46 0 -41 -23 7 -30 27 -4 30 -7 16 -13 -28 -11 -44
-9 -61 9 -32 31 -14 84 29 84 12 0 26 -5 33 -12z m109 5 c14 -6 10 -9 -17 -13
-29 -4 -35 -9 -35 -30 0 -21 5 -26 33 -28 36 -4 34 -22 -3 -22 -28 0 -55 24
-55 50 0 22 25 50 45 50 7 0 22 -3 32 -7z m177 -9 c31 -30 9 -84 -34 -84 -24
0 -50 26 -50 50 0 24 26 50 50 50 10 0 26 -7 34 -16z m86 6 c0 -4 -7 -10 -15
-14 -9 -3 -15 -19 -15 -41 0 -19 -4 -35 -10 -35 -5 0 -10 22 -10 49 0 45 2 49
25 49 14 0 25 -4 25 -8z m274 -6 c31 -30 9 -84 -34 -84 -24 0 -50 26 -50 50 0
24 26 50 50 50 10 0 26 -7 34 -16z m121 7 c3 -5 -9 -11 -27 -13 -28 -2 -33 -7
-33 -28 0 -21 5 -26 33 -28 36 -4 34 -22 -3 -22 -28 0 -55 24 -55 50 0 37 67
69 85 41z m250 0 c3 -5 -9 -11 -27 -13 -28 -2 -33 -7 -33 -28 0 -21 5 -26 33
-28 36 -4 34 -22 -3 -22 -28 0 -55 24 -55 50 0 37 67 69 85 41z m99 -7 c21
-20 20 -43 -1 -66 -20 -22 -46 -23 -67 -2 -31 30 -9 84 34 84 10 0 26 -7 34
-16z m113 4 c7 -5 14 -5 18 2 10 16 42 12 49 -6 10 -25 7 -84 -4 -84 -5 0 -10
18 -10 41 0 33 -3 40 -17 37 -13 -2 -19 -14 -21 -41 -4 -50 -22 -47 -22 4 0
36 -2 40 -22 37 -19 -2 -24 -10 -26 -40 -5 -55 -22 -46 -22 10 0 48 0 49 33
49 17 0 37 -4 44 -9z m-327 -78 c0 -5 -4 -10 -10 -10 -5 0 -10 5 -10 10 0 6 5
10 10 10 6 0 10 -4 10 -10z"/>
<path d="M2150 500 c0 -5 5 -10 10 -10 6 0 10 5 10 10 0 6 -4 10 -10 10 -5 0
-10 -4 -10 -10z"/>
<path d="M536 418 c-28 -39 -21 -48 39 -48 59 0 67 9 45 51 -15 27 -64 25 -84
-3z"/>
<path d="M986 424 c-50 -50 -21 -144 44 -144 48 0 80 50 66 104 -13 53 -75 75
-110 40z"/>
<path d="M1616 408 c-32 -46 -8 -118 39 -118 28 0 55 34 55 70 0 36 -27 70
-55 70 -13 0 -31 -10 -39 -22z"/>
<path d="M9314 325 c-4 -9 -2 -21 4 -27 16 -16 47 -5 47 17 0 26 -42 34 -51
10z"/>
<path d="M9644 375 c-4 -9 -2 -21 4 -27 15 -15 44 -1 40 19 -4 23 -36 29 -44
8z"/>
<path d="M7405 340 c-4 -6 5 -10 19 -10 14 0 26 5 26 10 0 6 -9 10 -19 10 -11
0 -23 -4 -26 -10z"/>
<path d="M7684 336 c-10 -26 4 -48 28 -44 17 2 23 10 23 28 0 18 -6 26 -23 28
-13 2 -25 -3 -28 -12z"/>
<path d="M8044 336 c-10 -26 4 -48 28 -44 17 2 23 10 23 28 0 18 -6 26 -23 28
-13 2 -25 -3 -28 -12z"/>
<path d="M8514 336 c-10 -26 4 -48 28 -44 17 2 23 10 23 28 0 18 -6 26 -23 28
-13 2 -25 -3 -28 -12z"/>
</g>
</svg>
